<svg width="125" height="122" viewBox="0 0 125 122" fill="none" xmlns="http://www.w3.org/2000/svg">
<path d="M12.7275 87.0324C10.3267 87.4817 7.92593 87.931 5.36291 88.4199C5.09224 88.4873 4.98382 88.5153 4.87539 88.5433C4.51689 88.5796 4.15839 88.616 3.6312 88.6848C3.27824 88.746 3.09397 88.7746 2.90969 88.8033C2.79828 88.7992 2.68686 88.7951 2.43039 88.8077C2.16132 88.8715 2.03732 88.9186 1.91332 88.9656C1.65382 88.9747 1.39432 88.9838 0.946339 89C0.50524 89.0002 0.25262 88.9933 0 88.9864C4.31873 87.2489 8.67678 85.6004 12.9491 83.7577C27.8823 77.3167 42.3505 69.9537 56.5302 62.0334C69.1954 54.9591 81.6444 47.5396 93.4138 39.0605C96.0849 37.1362 98.6734 35.0998 101.411 33.0313C99.6362 30.8737 97.9506 28.8241 96.1688 26.6574C105.837 25.0981 115.333 23.5666 124.924 22.0047C125.019 21.9743 125.019 22.0957 124.956 22.2084C124.742 22.7685 124.591 23.2158 124.44 23.6632C123.732 25.4678 123.023 27.2725 122.263 29.2153C122.177 29.4843 122.142 29.6151 122.108 29.7459C122.019 29.9361 121.93 30.1263 121.793 30.4645C121.533 31.2141 121.322 31.8157 121.111 32.4172C120.525 33.8937 119.938 35.3702 119.291 36.9768C119.203 37.2437 119.175 37.3805 119.146 37.5172C118.824 38.291 118.501 39.0648 118.135 39.9987C117.916 40.6444 117.741 41.1298 117.566 41.6153C117.044 42.9238 116.523 44.2323 115.949 45.7051C115.708 46.3922 115.52 46.915 115.333 47.4378C115.12 47.9049 114.908 48.3719 114.642 48.9574C114.13 48.3602 113.679 47.8323 113.136 47.1988C112.848 46.8798 112.65 46.6662 112.452 46.4526C111.984 45.8674 111.516 45.2821 110.941 44.6997C110.834 44.7024 110.822 44.6726 110.822 44.6726C110.757 44.502 110.693 44.3314 110.538 44.0438C110.187 43.6431 109.926 43.3595 109.645 43.055C109.066 43.4855 108.553 43.8662 108.041 44.2468C107.175 44.7834 106.309 45.3201 105.329 45.9423C105.026 46.1737 104.837 46.3195 104.649 46.4654C104.111 46.7838 103.573 47.1022 102.898 47.4959C102.479 47.7732 102.197 47.9753 101.916 48.1773C101.455 48.4329 100.995 48.6885 100.408 49.0247C99.9057 49.3502 99.5307 49.5951 99.1556 49.8399C98.6345 50.1193 98.1134 50.3986 97.4609 50.7688C96.6916 51.2564 96.0537 51.6531 95.4158 52.0499C95.4158 52.0499 95.3341 52.0417 95.2365 52.0788C94.9401 52.2593 94.7414 52.4027 94.5426 52.546C94.1647 52.7337 93.7868 52.9214 93.2918 53.1884C93.0601 53.3574 92.9454 53.4469 92.8307 53.5365C90.6265 54.7331 88.4224 55.9296 86.073 57.1939C85.5886 57.4716 85.2495 57.6815 84.9104 57.8913C83.4798 58.6227 82.0491 59.354 80.4655 60.1511C79.572 60.6138 78.8316 61.0107 78.0912 61.4075C77.1518 61.8714 76.2124 62.3352 75.1305 62.8776C74.2903 63.3162 73.5925 63.6761 72.8948 64.036C72.1323 64.3954 71.3699 64.7548 70.455 65.177C69.7455 65.5367 69.1884 65.8335 68.6313 66.1303C67.8994 66.4553 67.1675 66.7804 66.2949 67.1601C65.8607 67.3717 65.5671 67.5286 65.2734 67.6855C64.3404 68.1044 63.4074 68.5234 62.3317 69.0111C61.5799 69.3698 60.9707 69.6597 60.3614 69.9495C59.1967 70.4579 58.032 70.9662 56.7131 71.525C56.1883 71.7612 55.8175 71.947 55.4467 72.1328C54.9135 72.3417 54.3802 72.5506 53.7058 72.8405C53.2067 73.0941 52.8487 73.2667 52.4908 73.4393C52.3595 73.4642 52.2283 73.4891 51.9885 73.5751C51.7579 73.6974 51.6359 73.7586 51.5138 73.8198C49.3481 74.6933 47.1824 75.5668 44.8916 76.507C44.6408 76.6288 44.5152 76.6838 44.3896 76.7389C44.1885 76.7996 43.9873 76.8603 43.6686 76.9886C43.3028 77.167 43.0546 77.2779 42.8065 77.3889C41.5022 77.8665 40.1979 78.3442 38.7298 78.8851C38.1323 79.1366 37.6985 79.3248 37.2647 79.513C35.8951 79.9846 34.5255 80.4562 32.993 80.9711C32.1823 81.2608 31.5344 81.5071 30.8866 81.7534C29.0492 82.3276 27.2119 82.9018 25.2438 83.537C24.9868 83.6416 24.8607 83.6851 24.7345 83.7286C21.289 84.6762 17.8434 85.6238 14.2631 86.5866C13.991 86.6696 13.8537 86.7375 13.7163 86.8054C13.606 86.8087 13.4958 86.8121 13.238 86.8313C12.9695 86.9089 12.8485 86.9707 12.7275 87.0324Z" fill="#C53346"/>
<path d="M78.6672 23.4871C79.5616 26.5556 78.6609 28.7766 75.8752 30.3804C69.9339 33.8009 64.0105 37.2541 58.016 40.581C55.3478 42.0618 54.1243 44.1392 54.1969 47.1472C54.2825 50.7007 54.2414 54.2582 54.1865 57.8129C54.1793 58.2786 53.8903 58.9692 53.5205 59.1664C46.0636 63.1447 38.5757 67.0661 31.0925 70.996C31.0648 71.0105 31.0147 70.9832 30.844 70.9498C30.844 70.5527 30.844 70.1264 30.844 69.7001C30.844 62.0986 30.8136 54.4969 30.8595 46.8956C30.8765 44.0811 29.7175 42.086 27.2498 40.6969C21.1677 37.2733 15.1172 33.7942 9.06567 30.3175C6.30944 28.7341 5.29072 25.8448 6.50682 23.2128C7.88543 20.2289 11.2995 19.1985 14.3346 20.765C18.4179 22.8725 22.4693 25.0611 26.6646 26.9275C29.6802 28.2692 32.9087 29.1409 36.2224 30.2844C36.4636 32.1598 36.7346 34.2936 37.0161 36.4261C37.0583 36.7456 37.0501 37.1421 37.2357 37.3607C38.1348 38.4193 37.9139 39.6137 37.8143 40.8283C37.4838 44.8585 37.1523 48.8896 36.924 52.9261C36.8852 53.6127 37.1782 54.4707 37.6211 55.0004C38.6691 56.2534 39.8862 57.3698 41.06 58.5164C42.1044 59.5366 42.9112 59.5687 43.9426 58.5794C45.1862 57.3866 46.364 56.1267 47.5906 54.9161C48.4185 54.0991 48.1808 53.0996 48.1109 52.1415C47.8079 47.9859 47.4566 43.8335 47.1866 39.6758C47.1482 39.0841 47.4601 38.47 47.6103 37.8664C47.7959 37.1201 48.0451 36.3829 48.1548 35.6258C48.3889 34.0101 48.5225 32.3799 48.7667 30.766C48.8142 30.4525 49.133 29.985 49.4012 29.9269C57.0674 28.2671 63.8583 24.6127 70.5953 20.8373C72.0721 20.0097 73.5947 19.75 75.2205 20.2647C76.846 20.7792 77.979 21.8359 78.6672 23.4871Z" fill="#C53346"/>
<path d="M115 59.089C115 80.0393 115 100.99 115 122C109.988 122 105.097 122 100.09 122C100.061 121.672 100.004 121.325 100.004 120.979C99.9991 100.671 99.9984 80.3642 100.004 60.0571C100.004 59.7389 100.081 59.4208 100.322 59.0733C100.718 59.0292 100.914 59.0146 101.109 59C101.224 59.0139 101.339 59.0277 101.659 59.0419C106.242 59.0578 110.621 59.0734 115 59.089Z" fill="#C53346"/>
<path d="M92 68.3461C91.9723 68.6302 91.9205 68.9144 91.9204 69.1985C91.9189 86.1758 91.9217 103.153 91.9236 120.33C91.9478 120.721 91.9725 120.912 91.9971 121.103C91.9431 121.383 91.8891 121.663 91.8241 122C87.2362 122 82.6503 122 78 122C78 104.028 78 86.1078 78 68.0484C82.3125 68.0484 86.588 68.0484 91.0533 68.0495C91.3517 68.0337 91.4602 68.0169 91.5687 68C91.6633 68.0501 91.758 68.1001 91.9049 68.2167C91.9571 68.2831 92 68.3461 92 68.3461Z" fill="#C53346"/>
<path d="M69.1933 78.0001C69.5357 78.189 69.9125 78.3514 69.9489 78.5719C70.041 79.13 69.9805 79.7141 69.9805 80.2878C69.9806 93.7691 69.9805 107.25 69.9805 120.732C69.9805 121.134 69.9805 121.536 69.9805 122C65.2796 122 60.6704 122 56 122C56 107.341 56 92.7345 56 78C60.3932 78 64.733 78 69.1933 78.0001Z" fill="#C53346"/>
<path d="M33 121.074C33.0149 112.771 33.0311 104.468 33.0439 96.1659C33.0484 93.1804 33.0446 90.195 33.0446 87.064C37.4939 87.064 41.871 87.064 46.4467 87.0646C46.7645 87.0435 46.8837 87.0218 47.003 87C47.329 87.0516 47.6551 87.1032 48 87.1578C48 98.7814 48 110.353 48 122C43.0127 122 38.0752 122 33.0909 121.818C33.0295 121.449 33.0147 121.261 33 121.074Z" fill="#C53346"/>
<path d="M34.2065 20.252C30.9616 16.4078 30.1294 12.0944 31.9392 7.45504C33.7551 2.80027 37.2903 0.32179 42.0778 0.0202846C47.1683 -0.300301 51.8826 3.21118 53.4317 8.27732C55.0403 13.538 53.1587 19.0813 48.7432 22.0899C44.4725 24.9999 38.7811 24.5472 34.9431 20.9899C34.7094 20.7733 34.4891 20.541 34.2065 20.252Z" fill="#C53346"/>
<path d="M12.9888 95C17.303 95 21.6171 95 26 95C26 104.064 26 112.998 26 122C21.3632 122 16.7427 122 12 122C12 121.652 12 121.332 12 121.012C12.0013 112.722 11.9989 104.432 12.0158 96.1416C12.0166 95.7778 12.1937 95.4143 12.4744 95.0521C12.7698 95.0356 12.8793 95.0178 12.9888 95Z" fill="#C53346"/>
<path d="M42.4556 55C40.2397 53.866 39.7577 52.402 40.0993 50.4101C40.6877 46.9779 40.8275 43.4984 41.1592 40C42.0543 40 42.8152 40 43.7808 40C43.8756 40.9843 43.9663 41.9745 44.0672 42.964C44.3304 45.5439 44.4384 48.1418 44.9162 50.6972C45.2757 52.6202 44.483 53.955 42.4556 55Z" fill="#C53346"/>
<path d="M43.7403 35.951C42.6775 35.9163 41.4613 36.1865 40.838 35.7356C40.3091 35.3531 40.4549 34.1393 40.3206 33.2908C40.203 32.5478 40.1111 31.8014 40 31C41.6824 31 43.2896 31 45 31C44.8126 32.4534 44.6529 33.8777 44.4234 35.2921C44.3846 35.5311 44.0448 35.7272 43.7403 35.951Z" fill="#C53346"/>
</svg>
