<svg width="217" height="128" viewBox="0 0 217 128" fill="none" xmlns="http://www.w3.org/2000/svg">
<path d="M61.0966 0.294848C62.9098 0.941483 64.0686 2.10429 65.0472 3.57886C72.6067 14.9699 81.6522 25.0237 92.3015 33.6297C94.3173 35.2588 96.78 35.2857 99.1339 35.6438C105.747 36.6501 112.358 36.6278 118.983 35.5727C122.183 35.0628 124.79 33.6614 127.226 31.566C136.876 23.266 145.154 13.7842 152.216 3.22025C153.865 0.752067 156.374 -0.405453 158.806 0.127578C161.647 0.750389 163.446 2.62114 163.928 5.49555C164.229 7.29469 163.551 8.83433 162.585 10.2905C158.125 17.0133 153.138 23.3193 147.671 29.2543C143.923 33.3228 139.982 37.1874 135.753 40.7546C133.019 43.0608 132.129 46.1788 131.947 49.5405C131.165 63.9554 130.45 78.3739 129.683 92.7897C129.507 96.1131 129.225 99.431 128.977 102.956C125.154 101.427 121.369 102.135 117.644 102.068C116.187 102.042 115.545 101.533 115.169 100.201C114.516 97.8856 113.717 95.6115 112.988 93.3176C112.212 90.8747 110.675 89.6282 108.435 89.6403C106.288 89.6519 104.814 90.8627 104.032 93.2685C103.251 95.6691 102.44 98.0609 101.716 100.478C101.377 101.608 100.788 102.093 99.5645 102.046C97.3904 101.963 95.2081 102.091 93.034 102.007C91.3669 101.943 89.7966 102.269 88.088 103C87.9226 101.351 87.7195 99.9184 87.6444 98.4791C87.2379 90.6841 86.9682 82.8805 86.4498 75.0933C85.8418 65.9602 85.6963 56.7972 84.737 47.6895C84.4194 44.6751 83.0131 42.2214 80.6178 40.1798C70.3458 31.4248 61.7152 21.2114 54.2474 10.0043C52.5566 7.46698 52.6123 4.93224 54.2466 2.59409C55.6871 0.53311 58.227 -0.352733 61.0966 0.294848Z" fill="#C53346"/>
<path d="M146.22 36.137C146.748 35.6822 147.053 35.1288 147.826 35C148.557 35.5551 148.772 36.4976 149.129 37.3246C150.804 41.206 152.741 44.9513 154.873 48.6011C155.6 49.8459 156.546 50.8226 157.765 51.6085C163.862 55.5401 170.627 57.5411 177.736 58.576C178.532 58.6919 179.242 58.3708 179.959 58.1269C189.886 54.749 199 49.8199 207.522 43.7606C208.096 43.3523 208.644 42.9007 209.246 42.5397C211.659 41.0941 214.615 41.7182 216.116 43.9627C217.631 46.2292 217.179 49.1528 214.912 50.8509C206.93 56.8305 198.391 61.9416 189.045 65.409C184.281 67.1764 181.531 70.1444 179.701 74.6431C176.102 83.4913 172.261 92.2417 168.512 101.029C168.359 101.388 168.302 101.838 167.863 102C167.261 101.961 167.299 101.428 167.161 101.095C166.339 99.121 164.824 98.2368 162.742 98.2198C160.801 98.2039 158.86 98.18 156.92 98.2222C155.884 98.2448 155.295 97.8721 155 96.8436C154.483 95.0424 153.859 93.2718 153.284 91.4872C152.583 89.3145 151.009 88.0524 148.946 88.0153C146.782 87.9764 145.357 89.0416 144.556 91.3631C143.944 93.1353 143.341 94.9126 142.818 96.7119C142.511 97.7694 141.967 98.269 140.818 98.2257C139.056 98.1592 137.289 98.1684 135.527 98.2206C134.195 98.26 133.72 97.89 134.159 96.4705C137.096 86.957 139.988 77.4295 142.868 67.8985C143.917 64.4255 144.912 60.9357 145.897 57.4437C146.454 55.4673 145.953 53.626 145.038 51.8569C143.663 49.2013 142.342 46.5171 140.913 43.8914C140.227 42.6312 140.204 41.7433 141.432 40.7326C143.104 39.3568 144.577 37.7404 146.22 36.137Z" fill="#C53346"/>
<path d="M48.4121 100.802C44.2268 91.0424 40.0921 81.3989 35.948 71.7595C34.7715 69.0228 32.7356 67.2852 29.9307 66.2088C20.002 62.3986 10.7925 57.2644 2.27083 50.9078C0.513405 49.5969 -0.348551 47.8688 0.131437 45.6989C0.585732 43.6451 1.90052 42.2805 3.99582 41.7945C5.80898 41.3739 7.30773 42.0868 8.73923 43.1388C16.3484 48.7313 24.5939 53.1515 33.3067 56.8137C37.1634 58.4348 40.8329 58.5746 44.756 57.512C48.4523 56.5108 52.0175 55.2127 55.5293 53.6866C59.706 51.8715 62.4501 48.8145 64.2654 44.7454C65.5545 41.8558 66.9646 39.0198 68.3224 36.1607C68.5204 35.7438 68.6223 35.262 69.0702 35.0126C69.6235 34.9269 69.9507 35.2949 70.2825 35.6156C72.1391 37.4104 73.9657 39.2367 75.8468 41.0053C76.5895 41.7036 76.8134 42.3272 76.2926 43.3013C74.9107 45.886 73.7452 48.5917 72.2704 51.1196C70.7343 53.7526 70.5919 56.3951 71.4551 59.2199C75.2045 71.4889 78.9393 83.7624 82.6738 96.0359C83.2781 98.0217 83.1933 98.1312 81.1126 98.1461C79.5844 98.1571 78.0499 98.0559 76.5295 98.1632C75.0766 98.2657 74.41 97.6526 74.0413 96.3047C73.5473 94.4985 72.9192 92.7249 72.2729 90.965C71.5618 89.0287 70.0545 87.9736 68.1567 87.9598C66.2275 87.9458 64.6733 88.937 63.9489 90.8456C63.2218 92.7614 62.5781 94.7146 62.0185 96.6855C61.704 97.7933 61.1107 98.21 59.9972 98.1613C58.7065 98.105 57.4064 98.2218 56.1192 98.1343C52.9812 97.9213 50.3037 98.447 49.4915 102C48.684 101.866 48.6961 101.295 48.4121 100.802Z" fill="#C53346"/>
<path d="M95.1389 23.3594C91.8599 14.6757 95.8812 6.17711 104.377 3.60111C112.283 1.20417 120.768 6.21393 122.65 14.3904C124.469 22.2886 118.987 30.463 110.989 31.7781C104.233 32.8889 98.3331 29.7904 95.1389 23.3594Z" fill="#C53346"/>
<path d="M107.182 121.533C104.531 123.499 101.988 125.406 99.4272 127.286C98.9388 127.645 98.4065 128.269 97.7483 127.805C97.0156 127.289 97.4258 126.536 97.6309 125.885C98.5955 122.825 99.522 119.75 100.574 116.722C100.986 115.536 100.834 114.846 99.7658 114.112C97.1492 112.315 94.6248 110.378 92.0754 108.48C91.5354 108.078 90.7712 107.696 91.0652 106.845C91.3249 106.094 92.1013 106.237 92.7175 106.235C95.8761 106.222 99.0356 106.185 102.193 106.247C103.427 106.271 104.073 105.823 104.43 104.605C105.217 101.918 106.074 99.2505 106.997 96.6094C107.336 95.6408 107.171 93.9968 108.514 94C109.724 94.0029 109.624 95.5791 109.941 96.512C110.844 99.1608 111.707 101.827 112.47 104.52C112.834 105.804 113.463 106.29 114.789 106.254C117.946 106.169 121.106 106.221 124.264 106.232C124.884 106.235 125.65 106.11 125.924 106.846C126.249 107.718 125.456 108.062 124.919 108.46C122.414 110.32 119.928 112.21 117.371 113.992C116.299 114.738 115.975 115.477 116.419 116.77C117.461 119.802 118.37 122.882 119.331 125.943C119.539 126.604 119.924 127.357 119.181 127.851C118.519 128.292 118.017 127.649 117.522 127.285C114.916 125.37 112.306 123.458 109.718 121.518C108.891 120.898 108.115 120.599 107.182 121.533Z" fill="#C53346"/>
<path d="M55.3736 35.7632C59.9433 44.2535 54.3693 53.9845 45.0613 54C38.9171 54.0102 33.7399 49.423 33.0632 42.9997C32.4992 37.6457 35.7279 32.0991 41.9353 30.4323C47.0744 29.0523 52.0426 31.015 55.3736 35.7632Z" fill="#C53346"/>
<path d="M182.546 36.2838C186.68 43.9216 181.608 53.5435 172.289 53.9879C166.341 54.2715 160.91 49.5452 160.098 43.4715C159.317 37.6213 163.282 31.7772 168.979 30.3837C174.452 29.045 179.614 31.2561 182.546 36.2838Z" fill="#C53346"/>
<path d="M68.6958 92.3599C69.6372 94.9953 70.5509 97.515 71.3426 100.071C71.7499 101.386 72.4447 101.958 73.9003 101.897C76.2146 101.798 78.5374 101.858 80.8557 101.897C81.5969 101.91 82.5576 101.719 82.909 102.573C83.3115 103.551 82.2823 103.817 81.7082 104.235C79.8008 105.623 77.8946 107.017 75.925 108.317C74.8218 109.046 74.4678 109.766 74.9811 111.075C75.8943 113.405 76.6078 115.81 77.3721 118.193C77.5431 118.726 77.834 119.367 77.2428 119.81C76.6218 120.276 76.1195 119.753 75.6567 119.43C73.5272 117.945 71.3839 116.475 69.311 114.917C68.3436 114.19 67.615 114.199 66.6483 114.94C64.6852 116.446 62.6325 117.842 60.599 119.259C60.0504 119.641 59.4811 120.366 58.7336 119.779C58.0228 119.221 58.5383 118.484 58.7429 117.844C59.488 115.515 60.2276 113.183 61.0287 110.872C61.3899 109.83 61.161 109.121 60.2242 108.489C58.1204 107.07 56.061 105.587 53.9972 104.112C53.4807 103.743 52.8002 103.368 53.0554 102.599C53.3096 101.832 54.0919 101.915 54.7248 101.908C57.103 101.88 59.4875 101.789 61.8581 101.92C63.5562 102.014 64.2955 101.351 64.7182 99.8059C65.3316 97.5641 66.159 95.3776 66.9159 93.1743C67.187 92.385 67.4445 91.4837 68.6958 92.3599Z" fill="#C53346"/>
<path d="M152.862 101.257C153.466 102.028 154.226 101.879 154.921 101.886C157.302 101.909 159.684 101.883 162.065 101.914C162.748 101.923 163.612 101.76 163.925 102.587C164.256 103.463 163.416 103.794 162.87 104.188C160.91 105.604 158.949 107.02 156.942 108.371C155.894 109.075 155.631 109.847 156.063 111.036C156.897 113.33 157.603 115.667 158.357 117.988C158.55 118.583 158.954 119.244 158.313 119.759C157.53 120.388 156.99 119.63 156.454 119.26C154.364 117.821 152.285 116.365 150.246 114.857C149.332 114.181 148.599 114.229 147.703 114.904C145.678 116.427 143.599 117.883 141.519 119.336C141.016 119.687 140.463 120.298 139.778 119.797C139.118 119.314 139.486 118.622 139.678 118.032C140.431 115.711 141.125 113.366 142.013 111.094C142.521 109.795 142.145 109.055 141.065 108.336C139.149 107.06 137.273 105.726 135.415 104.37C134.795 103.917 133.688 103.589 134.083 102.583C134.442 101.672 135.5 101.915 136.304 101.905C138.625 101.875 140.949 101.837 143.268 101.905C144.556 101.943 145.227 101.451 145.589 100.262C146.25 98.0957 146.991 95.9512 147.752 93.8159C148.006 93.1038 147.944 91.9662 149.051 92.0008C150.103 92.0336 150.093 93.151 150.348 93.8704C151.201 96.2793 151.98 98.7134 152.862 101.257Z" fill="#C53346"/>
<path d="M33.8523 90.5916C34.4285 92.2435 35.0616 93.7515 35.4526 95.315C35.9001 97.1046 36.8058 97.9473 38.8369 97.7081C40.3195 97.5335 41.8429 97.6683 43.348 97.681C44.015 97.6866 44.76 97.6745 44.9678 98.4625C45.157 99.1801 44.4707 99.4346 44.0042 99.7669C42.5069 100.833 41.0227 101.919 39.4875 102.933C38.6535 103.484 38.4571 104.12 38.7678 105.009C39.3402 106.648 39.9015 108.292 40.4021 109.952C40.5868 110.564 41.168 111.317 40.3345 111.837C39.5524 112.324 38.9874 111.599 38.4285 111.234C37.0861 110.358 35.724 109.49 34.4981 108.477C33.4193 107.585 32.5816 107.652 31.5162 108.48C30.1164 109.567 28.6044 110.522 27.126 111.515C26.6952 111.804 26.2342 112.209 25.6574 111.85C24.9953 111.438 25.2334 110.84 25.4175 110.293C25.9892 108.592 26.5407 106.885 27.1754 105.206C27.5549 104.202 27.4443 103.494 26.4329 102.873C25.0667 102.036 23.7712 101.088 22.4784 100.146C21.8393 99.6805 20.7501 99.33 21.0517 98.3719C21.3996 97.2663 22.574 97.7277 23.4112 97.6934C24.9137 97.6319 26.4249 97.6036 27.9247 97.6874C29.2557 97.7617 29.8953 97.1985 30.2453 96.0294C30.7424 94.3691 31.3265 92.7314 31.9194 91.0994C32.2515 90.1854 32.7219 89.4293 33.8523 90.5916Z" fill="#C53346"/>
<path d="M189.99 105.527C190.532 107.131 191.036 108.609 191.509 110.095C191.693 110.675 192.131 111.338 191.393 111.822C190.673 112.293 190.148 111.69 189.632 111.345C188.102 110.323 186.575 109.295 185.092 108.212C184.287 107.624 183.648 107.656 182.852 108.252C181.383 109.35 179.847 110.367 178.322 111.396C177.804 111.745 177.265 112.326 176.571 111.769C175.999 111.309 176.299 110.713 176.484 110.166C177.021 108.577 177.495 106.966 178.117 105.408C178.578 104.25 178.372 103.456 177.277 102.761C175.774 101.806 174.335 100.758 172.874 99.7421C172.385 99.4019 171.819 99.0431 172.056 98.3587C172.289 97.6846 172.966 97.6911 173.571 97.6859C175.256 97.6713 176.95 97.5714 178.625 97.6967C180.27 97.8197 181.008 97.1785 181.383 95.6949C181.779 94.1348 182.426 92.633 182.968 91.1074C183.14 90.6239 183.232 90.0267 183.923 90.001C184.69 89.9723 184.889 90.5894 185.083 91.1328C185.646 92.7128 186.267 94.28 186.708 95.8917C187.073 97.2238 187.754 97.8096 189.246 97.707C190.923 97.5916 192.615 97.6664 194.3 97.6839C194.946 97.6906 195.723 97.5842 195.96 98.3837C196.165 99.074 195.537 99.4168 195.073 99.7511C193.726 100.721 192.397 101.724 190.971 102.577C189.761 103.301 189.241 104.111 189.99 105.527Z" fill="#C53346"/>
</svg>
