<?xml version="1.0" encoding="UTF-8"?> <svg xmlns="http://www.w3.org/2000/svg" width="1456" height="419" viewBox="0 0 1456 419" fill="none"><path d="M128 336.6L165.5 362.1L104.2 393L0 328.7V203.6L104.3 146.3L161.8 182.3L128 204.8V336.6Z" fill="url(#paint0_linear_446_4401)"></path><path d="M104.1 121.6L67.5004 140.8L67.4004 63.2L179.6 0L289.2 58.6L288.9 195.3L233.6 227.1L233.5 201.8L104.1 121.6Z" fill="url(#paint1_linear_446_4401)"></path><path d="M310.5 206.5L310.4 169L361.7 204.5V327L250.3 392.4L149.2 322.9L149.4 265.7L179.4 283.3L310.5 206.5Z" fill="url(#paint2_linear_446_4401)"></path><path d="M710.6 418.5V382.9H740.9C743.1 382.9 744.9 383.1 746.4 383.5C747.9 383.9 749 384.5 749.9 385.4C750.8 386.3 751.4 387.5 751.7 389C752.1 390.5 752.2 392.3 752.2 394.5V407C752.2 409.2 752 411 751.7 412.5C751.3 414 750.7 415.2 749.9 416.1C749.1 417 747.9 417.6 746.4 418C745 418.4 743.1 418.6 740.9 418.6H710.6V418.5ZM745.2 394.5C745.2 392.7 744.9 391.5 744.3 390.9C743.7 390.3 742.6 389.9 741 389.9H717.8V411.5H741C742.6 411.5 743.7 411.2 744.3 410.6C744.9 410 745.2 408.8 745.2 407V394.5Z" fill="#A2195B"></path><path d="M758.699 418.5V382.9H765.799V418.5H758.699Z" fill="#A2195B"></path><path d="M805.799 418.5L805.599 414.2C805.499 414.7 805.299 415.2 804.899 415.7C804.499 416.2 804.099 416.7 803.499 417.1C802.899 417.5 802.199 417.8 801.399 418.1C800.599 418.4 799.699 418.5 798.699 418.5H783.399C781.199 418.5 779.299 418.3 777.899 418C776.399 417.6 775.299 417 774.499 416.1C773.699 415.2 773.099 414 772.699 412.6C772.399 411.1 772.199 409.3 772.199 407V394.5C772.199 392.4 772.399 390.6 772.699 389.1C772.999 387.6 773.599 386.4 774.499 385.5C775.299 384.6 776.499 383.9 777.899 383.5C779.299 383.1 781.199 382.9 783.399 382.9H801.699C802.999 382.9 804.199 383.1 805.199 383.4C806.199 383.8 806.999 384.2 807.699 384.8C808.399 385.3 808.999 385.9 809.399 386.5C809.799 387.1 810.099 387.7 810.299 388.1L805.799 392.7C805.399 392 804.899 391.4 804.299 390.8C803.599 390.2 802.599 389.9 801.199 389.9H783.399C781.799 389.9 780.599 390.2 779.999 390.8C779.399 391.4 779.099 392.6 779.099 394.4V405.9C779.099 407.1 779.099 408.1 779.299 408.9C779.399 409.6 779.599 410.2 779.999 410.6C780.299 411 780.799 411.3 781.299 411.4C781.799 411.5 782.499 411.6 783.399 411.6H799.799C801.799 411.6 803.199 411.3 803.899 410.7C804.699 410.1 805.099 409.3 805.099 408.2V403.7H791.599V397.9H811.799V418.6H805.799V418.5Z" fill="#A2195B"></path><path d="M818 418.5V382.9H825.1V418.5H818Z" fill="#A2195B"></path><path d="M842.7 418.5V390H829.5V383H862.9V390H849.7V418.5H842.6H842.7Z" fill="#A2195B"></path><path d="M897.099 418.5L892.599 410.2H870.799L866.299 418.5H858.199L877.999 382.9H885.399L905.199 418.5H897.099ZM881.699 389.9L873.499 404.6H889.799L881.599 389.9H881.699Z" fill="#A2195B"></path><path d="M908.899 418.5V382.9H915.999V411.4H943.199V418.4H908.999L908.899 418.5Z" fill="#A2195B"></path><path d="M1000.7 408.2C1000.7 410.1 1000.5 411.7 1000.1 413C999.7 414.3 999 415.4 998.1 416.2C997.2 417 996 417.6 994.5 418C993 418.4 991.2 418.5 989.1 418.5H963.6C963.6 417.3 963.7 416.2 963.8 415C963.8 413.8 964 412.7 964 411.5H988.5C989.4 411.5 990.2 411.5 990.9 411.3C991.6 411.2 992.1 411 992.4 410.7C992.8 410.4 993 410 993.2 409.5C993.4 409 993.4 408.4 993.4 407.6C993.4 406.1 993.1 405.1 992.4 404.5C991.7 403.9 990.5 403.7 988.6 403.7H974C971.8 403.7 970 403.5 968.6 403.1C967.1 402.7 966 402.1 965.1 401.3C964.2 400.5 963.6 399.5 963.2 398.3C962.8 397.1 962.6 395.7 962.6 394.1V392.9C962.6 391.1 962.8 389.6 963.2 388.3C963.6 387 964.2 386 965.1 385.2C966 384.4 967.2 383.8 968.7 383.5C970.2 383.1 972 382.9 974.2 382.9H999.5C999.4 384.1 999.2 385.3 999.1 386.4C999 387.6 998.8 388.7 998.6 389.9H974.2C972.4 389.9 971.3 390.2 970.7 390.8C970.1 391.4 969.8 392.4 969.8 393.8C969.8 395.2 970.1 396.2 970.7 396.8C971.3 397.4 972.5 397.7 974.2 397.7H988.6C990.8 397.7 992.7 397.9 994.3 398.2C995.8 398.6 997.1 399.1 998 399.9C998.9 400.7 999.6 401.6 1000 402.8C1000.4 404 1000.6 405.3 1000.6 406.9V408.1L1000.7 408.2Z" fill="#A2195B"></path><path d="M1017.2 418.5C1015 418.5 1013.2 418.3 1011.7 417.9C1010.3 417.5 1009.1 416.9 1008.2 416C1007.3 415.1 1006.7 413.9 1006.4 412.4C1006 410.9 1005.9 409.1 1005.9 406.9V394.4C1005.9 392.2 1006.1 390.4 1006.4 388.9C1006.7 387.4 1007.4 386.2 1008.2 385.3C1009.1 384.4 1010.2 383.8 1011.7 383.4C1013.1 383 1014.9 382.8 1017.2 382.8H1036.2C1038.3 382.8 1040.1 383 1041.6 383.4C1043.1 383.8 1044.2 384.4 1045.1 385.3C1046 386.2 1046.6 387.4 1047 388.9C1047.4 390.4 1047.6 392.2 1047.6 394.4V406.9C1047.6 409.1 1047.4 410.9 1047 412.4C1046.6 413.9 1046 415.1 1045.1 416C1044.2 416.9 1043.1 417.5 1041.6 417.9C1040.2 418.3 1038.4 418.5 1036.2 418.5H1017.2ZM1040.4 394.5C1040.4 392.7 1040.1 391.5 1039.5 390.9C1038.9 390.3 1037.8 389.9 1036.2 389.9H1017.2C1015.6 389.9 1014.5 390.2 1013.9 390.9C1013.3 391.5 1013 392.7 1013 394.5V407C1013 407.9 1013 408.6 1013.2 409.2C1013.3 409.8 1013.6 410.2 1013.9 410.6C1014.2 411 1014.7 411.2 1015.2 411.3C1015.7 411.4 1016.4 411.5 1017.2 411.5H1036.2C1037.8 411.5 1038.9 411.2 1039.5 410.6C1040.1 410 1040.4 408.8 1040.4 407V394.5Z" fill="#A2195B"></path><path d="M1053.7 418.5V382.9H1060.8V411.4H1088V418.4H1053.8L1053.7 418.5Z" fill="#A2195B"></path><path d="M1102.9 418.5C1100.9 418.5 1099.2 418.3 1097.8 417.9C1096.4 417.5 1095.3 416.8 1094.4 415.9C1093.5 415 1092.9 413.8 1092.5 412.4C1092.1 411 1091.9 409.3 1091.9 407.2V382.9H1098.9V407.2C1098.9 408.7 1099.2 409.8 1099.8 410.5C1100.4 411.2 1101.4 411.5 1102.8 411.5H1120.4C1121.8 411.5 1122.8 411.1 1123.4 410.5C1124 409.8 1124.3 408.7 1124.3 407.2V382.9H1131.4V407.2C1131.4 409.2 1131.2 411 1130.8 412.4C1130.4 413.8 1129.8 415 1128.9 415.9C1128.1 416.8 1126.9 417.5 1125.5 417.9C1124.1 418.3 1122.4 418.5 1120.4 418.5H1102.8H1102.9Z" fill="#A2195B"></path><path d="M1148.7 418.5V390H1135.5V383H1168.9V390H1155.7V418.5H1148.6H1148.7Z" fill="#A2195B"></path><path d="M1173.5 418.5V382.9H1180.6V418.5H1173.5Z" fill="#A2195B"></path><path d="M1198.2 418.5C1196 418.5 1194.2 418.3 1192.7 417.9C1191.3 417.5 1190.1 416.9 1189.2 416C1188.3 415.1 1187.7 413.9 1187.4 412.4C1187.1 410.9 1186.9 409.1 1186.9 406.9V394.4C1186.9 392.2 1187.1 390.4 1187.4 388.9C1187.8 387.4 1188.4 386.2 1189.2 385.3C1190.1 384.4 1191.2 383.8 1192.7 383.4C1194.1 383 1195.9 382.8 1198.2 382.8H1217.2C1219.3 382.8 1221.1 383 1222.6 383.4C1224.1 383.8 1225.2 384.4 1226.1 385.3C1227 386.2 1227.6 387.4 1228 388.9C1228.4 390.4 1228.5 392.2 1228.5 394.4V406.9C1228.5 409.1 1228.3 410.9 1228 412.4C1227.6 413.9 1227 415.1 1226.1 416C1225.2 416.9 1224.1 417.5 1222.6 417.9C1221.2 418.3 1219.4 418.5 1217.2 418.5H1198.2ZM1221.4 394.5C1221.4 392.7 1221.1 391.5 1220.5 390.9C1219.9 390.3 1218.8 389.9 1217.2 389.9H1198.2C1196.6 389.9 1195.5 390.2 1194.9 390.9C1194.3 391.5 1194 392.7 1194 394.5V407C1194 407.9 1194 408.6 1194.2 409.2C1194.3 409.8 1194.6 410.2 1194.9 410.6C1195.2 411 1195.7 411.2 1196.2 411.3C1196.7 411.4 1197.4 411.5 1198.2 411.5H1217.2C1218.8 411.5 1219.9 411.2 1220.5 410.6C1221.1 410 1221.4 408.8 1221.4 407V394.5Z" fill="#A2195B"></path><path d="M1266.9 418.5L1241.5 392.3V418.5H1234.7V382.9H1242.3L1267 408.6V382.9H1273.8V418.5H1266.8H1266.9Z" fill="#A2195B"></path><path d="M1317.1 408.2C1317.1 410.1 1316.9 411.7 1316.5 413C1316.1 414.3 1315.4 415.4 1314.5 416.2C1313.6 417 1312.4 417.6 1310.9 418C1309.4 418.4 1307.6 418.5 1305.5 418.5H1280C1280 417.3 1280.1 416.2 1280.2 415C1280.2 413.8 1280.4 412.7 1280.4 411.5H1304.9C1305.8 411.5 1306.6 411.5 1307.3 411.3C1308 411.2 1308.5 411 1308.8 410.7C1309.2 410.4 1309.4 410 1309.6 409.5C1309.7 409 1309.8 408.4 1309.8 407.6C1309.8 406.1 1309.5 405.1 1308.8 404.5C1308.1 403.9 1306.9 403.7 1305 403.7H1290.4C1288.2 403.7 1286.4 403.5 1285 403.1C1283.5 402.7 1282.4 402.1 1281.5 401.3C1280.6 400.5 1280 399.5 1279.6 398.3C1279.2 397.1 1279 395.7 1279 394.1V392.9C1279 391.1 1279.2 389.6 1279.6 388.3C1280 387 1280.6 386 1281.5 385.2C1282.4 384.4 1283.6 383.8 1285.1 383.5C1286.6 383.1 1288.4 382.9 1290.6 382.9H1315.9C1315.8 384.1 1315.6 385.3 1315.5 386.4C1315.4 387.6 1315.2 388.7 1315 389.9H1290.6C1288.9 389.9 1287.7 390.2 1287.1 390.8C1286.5 391.4 1286.2 392.4 1286.2 393.8C1286.2 395.2 1286.5 396.2 1287.1 396.8C1287.7 397.4 1288.9 397.7 1290.6 397.7H1305C1307.2 397.7 1309.1 397.9 1310.7 398.2C1312.2 398.6 1313.5 399.1 1314.4 399.9C1315.3 400.7 1316 401.6 1316.4 402.8C1316.8 404 1317 405.3 1317 406.9V408.1L1317.1 408.2Z" fill="#A2195B"></path><path d="M1338.7 418.5V382.9H1345.8V411.4H1372.9V418.4H1338.7V418.5Z" fill="#A2195B"></path><path d="M1377 418.5V382.9H1384.1V411.4H1411.2V418.4H1377V418.5Z" fill="#A2195B"></path><path d="M1422.5 406.9V418.4H1415.4V382.8H1442.5C1444.6 382.8 1446.3 383 1447.7 383.3C1449.1 383.7 1450.2 384.3 1451.1 385.1C1451.9 385.9 1452.5 387 1452.9 388.4C1453.3 389.8 1453.5 391.5 1453.5 393.6V396.8C1453.5 398.6 1453.3 400.2 1452.9 401.5C1452.5 402.8 1451.9 403.8 1451.1 404.6C1450.3 405.4 1449.1 406 1447.7 406.3C1446.3 406.7 1444.6 406.8 1442.5 406.8H1422.5V406.9ZM1446.3 393.7C1446.3 392.3 1446 391.3 1445.4 390.8C1444.8 390.2 1443.8 390 1442.4 390H1422.4V400.7H1442.4C1443.8 400.7 1444.8 400.4 1445.4 399.9C1446 399.3 1446.3 398.4 1446.3 397.1V393.8V393.7Z" fill="#A2195B"></path><path d="M532.5 298.2C530 300.4 526 301.5 520.7 301.5H444.3C440.8 301.5 438 301.1 435.9 300.4C433.8 299.7 432.1 298.6 431 297.1C429.9 295.6 429.1 293.8 428.7 291.7C428.3 289.6 428.1 287 428.1 284.1V235.4C428.1 228.9 429.3 224.3 431.7 221.8C434.1 219.3 438.3 218 444.3 218H519.7C524.9 218 528.9 219.1 531.5 221.3C534.2 223.5 536.1 225.9 537.3 228.6L554.5 211C553.7 209.1 552.5 207 550.9 204.7C549.3 202.4 547.2 200.1 544.5 198.1C541.8 196 538.6 194.3 534.8 192.9C531 191.5 526.5 190.8 521.5 190.8H444.1C435.8 190.8 428.9 191.5 423.4 192.9C417.9 194.3 413.5 196.7 410.3 200.2C407 203.7 404.7 208.3 403.3 214.1C401.9 219.9 401.2 227 401.2 235.6V284.2C401.2 292.8 401.9 299.9 403.3 305.7C404.7 311.5 407 316 410.3 319.4C413.6 322.8 418 325.2 423.4 326.7C428.9 328.2 435.8 328.9 444.1 328.9H522.3C527.4 328.9 531.8 328.2 535.6 326.8C539.4 325.4 542.6 323.7 545.3 321.6C548 319.5 550.1 317.3 551.7 315C553.3 312.6 554.5 310.6 555.3 308.7L538 291.2C536.8 293.9 534.9 296.3 532.4 298.5L532.5 298.2Z" fill="white"></path><path d="M633.2 300.5L595.7 220.3H566L619.2 323.6C617.6 326.7 615.3 329.1 612.3 331C609.3 332.9 605.7 333.8 601.6 333.8C597.5 333.8 594.6 333.5 591.8 332.9C589 332.3 586.3 331.3 583.6 330L571.2 355.3C575.7 357.4 580.4 358.7 585.2 359.2C590 359.7 594.5 359.9 598.6 359.9C604.6 359.9 610 359.2 614.7 357.7C619.4 356.2 623.6 354.1 627.4 351.3C631.2 348.5 634.7 345 637.8 340.7C640.9 336.4 643.9 331.5 646.5 325.9L696.8 220.4H668.3L633.2 300.6V300.5Z" fill="white"></path><path d="M817.9 230.9C814.6 227.3 810.3 224.6 805 222.9C799.6 221.2 793 220.3 785.1 220.3H763.6C757.2 220.3 752 221.5 748 223.8C744.1 226.1 740.6 230.2 737.7 235.9V177.9L711 186.9V328.5C713.1 328.5 715.2 328.2 717.2 327.5C719.2 326.8 721.1 325.8 722.7 324.4C724.4 323 725.8 321.2 726.9 319.1C728 317 728.8 314.4 729.2 311.3C730.9 317.2 734.4 321.5 739.5 324.3C744.6 327.1 751.9 328.5 761.3 328.5H785C792.9 328.5 799.5 327.6 804.9 325.9C810.2 324.2 814.6 321.5 817.8 317.9C821.1 314.3 823.4 309.8 824.8 304.4C826.2 299 826.9 292.6 826.9 285.2V263.5C826.9 256.1 826.2 249.8 824.8 244.3C823.4 238.9 821.1 234.4 817.8 230.8L817.9 230.9ZM800.1 284.5C800.1 288.6 799.8 292.1 799.3 294.7C798.8 297.4 797.9 299.5 796.8 301.1C795.7 302.7 794.1 303.8 792.2 304.4C790.3 305 787.9 305.3 785.1 305.3H753.6C748.9 305.3 745.3 304 742.8 301.5C740.3 299 738.6 295.8 737.8 292.1V254C738.7 250.3 740.4 247.6 742.9 246C745.4 244.4 748.9 243.6 753.6 243.6H785.1C791.2 243.6 795.3 245.3 797.2 248.6C799.1 251.9 800.1 257.2 800.1 264.4V284.5Z" fill="white"></path><path d="M927.9 220.3H892C877.4 220.3 866.9 223.3 860.3 229.2C853.7 235.2 850.5 244.9 850.5 258.4V290.5C850.5 304 853.8 313.7 860.3 319.7C866.9 325.7 877.4 328.6 892 328.6H927.9C942.6 328.6 953.2 325.6 959.8 319.7C966.4 313.8 969.6 304 969.6 290.5V258.4C969.6 244.9 966.3 235.2 959.8 229.2C953.2 223.3 942.6 220.3 927.9 220.3ZM942.7 290.5C942.7 296.1 941.5 300 939.1 302.1C936.7 304.2 932.9 305.3 927.9 305.3H892C886.9 305.3 883.2 304.2 880.8 302.1C878.4 300 877.2 296.1 877.2 290.5V258.4C877.2 252.8 878.4 248.9 880.8 246.8C883.2 244.7 887 243.6 892 243.6H927.9C933 243.6 936.7 244.7 939.1 246.8C941.5 248.9 942.7 252.8 942.7 258.4V290.5Z" fill="white"></path><path d="M1020.6 178.2L993.5 187.2V328.6H1124.5V301.3H1020.6V178.2Z" fill="white"></path><path d="M1168.2 182.2H1141.1V210.9H1168.2V182.2Z" fill="white"></path><path d="M1168 220.3H1141.1V328.6H1168V220.3Z" fill="white"></path><path d="M1300.6 230.9C1297.4 227.3 1293.1 224.6 1287.8 222.9C1282.4 221.2 1275.8 220.3 1267.9 220.3H1244.2C1237.8 220.3 1232.6 221.5 1228.7 223.8C1224.8 226.1 1221.4 230.2 1218.5 235.9V220.3H1192.8V328.6H1219.5V254C1220.6 250.4 1222.1 247.7 1224.1 246.1C1226.1 244.4 1229 243.6 1232.9 243.6H1267.8C1273.4 243.6 1277.3 245 1279.4 247.7C1281.5 250.4 1282.6 254.6 1282.6 260.2V328.6H1309.5V263.6C1309.5 256.2 1308.8 249.9 1307.4 244.4C1306 239 1303.7 234.5 1300.5 230.9H1300.6Z" fill="white"></path><path d="M1455.3 220.3H1422.2L1360.2 279.7V177.9L1333.5 187V328.6H1360.2V310L1381.9 290.1L1420.4 328.6H1454.9L1398.3 274L1455.3 220.3Z" fill="white"></path><defs><linearGradient id="paint0_linear_446_4401" x1="0" y1="269.7" x2="165.5" y2="269.7" gradientUnits="userSpaceOnUse"><stop stop-color="#E5332A"></stop><stop offset="1" stop-color="#A2195B"></stop></linearGradient><linearGradient id="paint1_linear_446_4401" x1="67.4004" y1="113.5" x2="289.2" y2="113.5" gradientUnits="userSpaceOnUse"><stop stop-color="#E5332A"></stop><stop offset="1" stop-color="#A2195B"></stop></linearGradient><linearGradient id="paint2_linear_446_4401" x1="149.2" y1="280.7" x2="361.7" y2="280.7" gradientUnits="userSpaceOnUse"><stop stop-color="#E5332A"></stop><stop offset="1" stop-color="#A2195B"></stop></linearGradient></defs></svg> 