<?xml version="1.0" encoding="UTF-8"?>
<svg id="Layer_1" xmlns="http://www.w3.org/2000/svg" xmlns:xlink="http://www.w3.org/1999/xlink" version="1.1" viewBox="0 0 217 128">
  <!-- Generator: Adobe Illustrator 30.1.0, SVG Export Plug-In . SVG Version: 2.1.1 Build 136)  -->
  <defs>
    <style>
      .st0 {
        mask: url(#mask);
      }

      .st1 {
        filter: url(#luminosity-noclip);
      }

      .st2 {
        filter: url(#luminosity-noclip1);
      }

      .st3 {
        mask: url(#mask-1);
      }

      .st4 {
        fill: #c53346;
      }
    </style>
    <filter id="luminosity-noclip" x="45.5" y="1" width="120.6" height="131.2" color-interpolation-filters="sRGB" filterUnits="userSpaceOnUse">
      <feFlood flood-color="#fff" result="bg"/>
      <feBlend in="SourceGraphic" in2="bg"/>
    </filter>
    <mask id="mask" x="45.5" y="1" width="120.6" height="131.2" maskUnits="userSpaceOnUse">
      <g class="st1">
        <path d="M105.8,132.2c-14,0-25.4-11.4-25.4-25.4s11.4-25.4,25.4-25.4,25.4,11.4,25.4,25.4-11.4,25.4-25.4,25.4Z"/>
      </g>
    </mask>
    <filter id="luminosity-noclip1" x="45.5" y="23.5" width="120.6" height="83.3" color-interpolation-filters="sRGB" filterUnits="userSpaceOnUse">
      <feFlood flood-color="#fff" result="bg"/>
      <feBlend in="SourceGraphic" in2="bg"/>
    </filter>
    <mask id="mask-1" x="45.5" y="23.5" width="120.6" height="83.3" maskUnits="userSpaceOnUse">
      <g class="st2">
        <path d="M94.3,38.3h23.2c3.1,0,5.7,2.5,5.7,5.7v23.2c0,3.1-2.5,5.7-5.7,5.7h-23.2c-3.1,0-5.7-2.5-5.7-5.7v-23.2c0-3.1,2.5-5.7,5.7-5.7Z" transform="translate(161.5 -50.3) rotate(90)"/>
      </g>
    </mask>
  </defs>
  <path class="st4" d="M105.8,85.6c-11.7,0-21.2,9.5-21.2,21.2s9.5,21.2,21.2,21.2,21.2-9.5,21.2-21.2-9.5-21.2-21.2-21.2ZM101.9,118l-11.8-12.5,4.5-4.3,7.6,8.1,15.1-13.7,4.2,4.6-19.6,17.8Z"/>
  <g class="st0">
    <g>
      <path class="st4" d="M92.8,20c0-2.6,0-5,0-7.4,0-3.3,1.9-5.2,5.1-5.3,5.4-.1,10.7,0,16.1.1,3.3.1,4.9,2.2,4.9,5.4,0,2.3,0,4.6,0,7.1h7c0-2.5,0-4.8,0-7.1,0-1.5-.2-3.1-.5-4.6-.8-4-4.5-7.2-8.6-7.3-7.2,0-14.5,0-21.7,0-4.1,0-8.2,3.1-8.8,7.1-.6,3.9-.1,8-.1,11.8h6.8Z"/>
      <path class="st4" d="M153.7,15.1h-17.5v4.5h17.5v-4.5Z"/>
      <path class="st4" d="M75,15h-17.3v4.6h17.3v-4.6Z"/>
      <g class="st3">
        <g>
          <path class="st4" d="M166.1,34.4c-.3-7.1-4.5-11-11.6-11-18.9,0-37.8,0-56.7,0-13.5,0-27,0-40.5,0-5.8,0-10.3,2.6-11.2,7.3-.8,4.4-.2,16.4-.2,20.9h120.2c0-3.4.1-14,0-17.3Z"/>
          <path class="st4" d="M165.8,56.3H45.5c0,1.2,0,2.2,0,3.2,0,14.4,0,21,0,35.4,0,8,3.5,11.7,11.6,11.8,9.9.2,19.8,0,29.7,0,22.4,0,44.8,0,67.2,0,7.6,0,12.1-4.3,12.1-11.4,0-14.9,0-22.1,0-37,0-.6-.2-1.2-.3-2Z"/>
        </g>
      </g>
      <rect class="st4" x="92.3" y="42" width="27.2" height="27.2" rx="2.3" ry="2.3"/>
    </g>
  </g>
</svg>