<svg width="15" height="15" viewBox="0 0 15 15" fill="none" xmlns="http://www.w3.org/2000/svg">
<path d="M3.40625 0.5C3.0246 0.5 2.64668 0.575172 2.29408 0.721225C1.94147 0.867278 1.62109 1.08135 1.35122 1.35122C1.08135 1.62109 0.867278 1.94147 0.721225 2.29408C0.575172 2.64668 0.5 3.0246 0.5 3.40625C0.5 3.7879 0.575172 4.16582 0.721225 4.51842C0.867278 4.87103 1.08135 5.19141 1.35122 5.46128C1.62109 5.73115 1.94147 5.94522 2.29408 6.09127C2.64668 6.23733 3.0246 6.3125 3.40625 6.3125C4.17704 6.3125 4.91625 6.00631 5.46128 5.46128C6.00631 4.91625 6.3125 4.17704 6.3125 3.40625C6.3125 2.63546 6.00631 1.89625 5.46128 1.35122C4.91625 0.806193 4.17704 0.5 3.40625 0.5ZM11.4688 0.5C11.0871 0.5 10.7092 0.575172 10.3566 0.721225C10.004 0.867278 9.68359 1.08135 9.41372 1.35122C9.14385 1.62109 8.92978 1.94147 8.78373 2.29408C8.63767 2.64668 8.5625 3.0246 8.5625 3.40625C8.5625 3.7879 8.63767 4.16582 8.78373 4.51842C8.92978 4.87103 9.14385 5.19141 9.41372 5.46128C9.68359 5.73115 10.004 5.94522 10.3566 6.09127C10.7092 6.23733 11.0871 6.3125 11.4688 6.3125C12.2395 6.3125 12.9788 6.00631 13.5238 5.46128C14.0688 4.91625 14.375 4.17704 14.375 3.40625C14.375 2.63546 14.0688 1.89625 13.5238 1.35122C12.9788 0.806193 12.2395 0.5 11.4688 0.5ZM3.40625 8.5625C3.0246 8.5625 2.64668 8.63767 2.29408 8.78373C1.94147 8.92978 1.62109 9.14385 1.35122 9.41372C1.08135 9.68359 0.867278 10.004 0.721225 10.3566C0.575172 10.7092 0.5 11.0871 0.5 11.4688C0.5 11.8504 0.575172 12.2283 0.721225 12.5809C0.867278 12.9335 1.08135 13.2539 1.35122 13.5238C1.62109 13.7936 1.94147 14.0077 2.29408 14.1538C2.64668 14.2998 3.0246 14.375 3.40625 14.375C4.17704 14.375 4.91625 14.0688 5.46128 13.5238C6.00631 12.9788 6.3125 12.2395 6.3125 11.4688C6.3125 10.698 6.00631 9.95875 5.46128 9.41372C4.91625 8.86869 4.17704 8.5625 3.40625 8.5625ZM11.4688 8.5625C11.0871 8.5625 10.7092 8.63767 10.3566 8.78373C10.004 8.92978 9.68359 9.14385 9.41372 9.41372C9.14385 9.68359 8.92978 10.004 8.78373 10.3566C8.63767 10.7092 8.5625 11.0871 8.5625 11.4688C8.5625 11.8504 8.63767 12.2283 8.78373 12.5809C8.92978 12.9335 9.14385 13.2539 9.41372 13.5238C9.68359 13.7936 10.004 14.0077 10.3566 14.1538C10.7092 14.2998 11.0871 14.375 11.4688 14.375C12.2395 14.375 12.9788 14.0688 13.5238 13.5238C14.0688 12.9788 14.375 12.2395 14.375 11.4688C14.375 10.698 14.0688 9.95875 13.5238 9.41372C12.9788 8.86869 12.2395 8.5625 11.4688 8.5625Z" stroke="white" stroke-linecap="round" stroke-linejoin="round"/>
</svg>
