<svg width="15" height="16" viewBox="0 0 15 16" fill="none" xmlns="http://www.w3.org/2000/svg">
<g opacity="0.3">
<path d="M12.481 8.29373L12.5242 7.04705L14.4758 8.36292L14.3115 13.1003L9.98629 15.4466L6.23865 12.5706L6.31648 10.3266C6.66555 10.5239 7.25966 10.8676 7.39582 10.9732C7.59209 10.7401 10.8048 9.12047 12.481 8.29373Z" fill="white"/>
<path d="M5.33208 13.6982L6.39011 14.359L4.27475 15.3912L0.254239 12.8802L0.384845 7.96132L4.74933 6.15375L6.65378 7.34316C6.30843 7.54685 5.71371 7.8895 5.55416 7.9546C5.65789 8.24113 5.4542 11.8332 5.33208 13.6982Z" fill="white"/>
<path d="M4.43074 4.99997L3.39558 5.69604L3.31695 3.3436L7.25055 0.69854L11.6875 2.82594L11.5557 7.54808L9.69244 8.80101C9.6475 8.40259 9.57751 7.7198 9.58321 7.54757C9.2793 7.52528 6.08339 5.87286 4.43074 4.99997Z" fill="white"/>
</g>
</svg>
